# xmcd
#
# Track frame offsets:
#	150
#	18427
#	34710
#	51205
#	68527
#	85552
#	106700
#	126500
#	143692
#	159855
#	176095
#	193990
#
# Disc length: 2807 seconds
#
# Revision: 3
# Processed by: cddbd v1.5.2PL0 Copyright (c) Steve Scherf et al.
# Submitted via: EasyCDDAExtractor 12.0.1.1
#
DISCID=960af50c
DTITLE=Smokie - Chasing shadows
DYEAR=1992
DGENRE=Country
TTITLE0=Don't play that game with me
TTITLE1=You're so different tonight
TTITLE2=Respect
TTITLE3=Lyin in the arms of the one you love
TTITLE4=Don't stop this love
TTITLE5=The rain came down
TTITLE6=Chasing shadows
TTITLE7=One night in Vienna
TTITLE8=All my life
TTITLE9=I'd die for you
TTITLE10=Remeber the days
TTITLE11=Scream you guitar
EXTD=
EXTT0=
EXTT1=
EXTT2=
EXTT3=
EXTT4=
EXTT5=
EXTT6=
EXTT7=
EXTT8=
EXTT9=
EXTT10=
EXTT11=
PLAYORDER=
